<svg width="1252" height="274" viewBox="0 0 1252 274" fill="none" xmlns="http://www.w3.org/2000/svg">
<rect x="206" y="31" width="85" height="222" rx="42.5" fill="white"/>
<rect y="87.7231" width="85" height="204.307" rx="42.5" transform="rotate(-56.3086 0 87.7231)" fill="white"/>
<circle cx="62" cy="212" r="41" fill="url(#paint0_linear_724_1095)"/>
<rect width="76.1834" height="247.652" rx="38.0917" transform="matrix(-0.764744 -0.644334 -0.50625 0.862386 489.635 54.2852)" fill="white"/>
<path d="M438.189 146.248L432.468 141.427C407.028 119.993 372.753 125.873 355.912 154.561L334.818 190.494C325.351 206.62 329.27 229.46 343.569 241.508C357.869 253.557 377.136 250.251 386.602 234.125L438.189 146.248Z" fill="url(#paint1_linear_724_1095)"/>
<rect width="90.6803" height="247.652" rx="45.3402" transform="matrix(0.764744 -0.644334 0.50625 0.862386 385.523 58.4282)" fill="white"/>
<rect width="76.1834" height="247.652" rx="38.0917" transform="matrix(-0.764744 -0.644334 -0.50625 0.862386 1160.63 56.2852)" fill="white"/>
<path d="M1109.19 148.248L1103.47 143.427C1078.03 121.993 1043.75 127.873 1026.91 156.561L1005.82 192.494C996.351 208.62 1000.27 231.46 1014.57 243.508C1028.87 255.557 1048.14 252.251 1057.6 236.125L1109.19 148.248Z" fill="url(#paint2_linear_724_1095)"/>
<rect width="90.6803" height="247.652" rx="45.3402" transform="matrix(0.764744 -0.644334 0.50625 0.862386 1056.52 60.4282)" fill="white"/>
<g clip-path="url(#clip0_724_1095)">
<path d="M758.79 7.00059C785.546 6.86984 807.349 28.4531 807.49 55.2086L807.541 64.86C807.677 90.6655 787.611 111.856 762.181 113.446L825.528 180.874C843.982 200.516 843.019 231.4 823.377 249.854C803.734 268.308 772.85 267.344 754.396 247.702L696 185.544V198.431C696 227.702 672.271 251.431 643 251.431C613.729 251.431 590 227.702 590 198.431V67.4313C590 34.2943 616.863 7.43126 650 7.43126H670.794L758.79 7.00059Z" fill="white"/>
<path d="M666.925 60.4814V60.4707L742.237 60.4336C751.385 60.4291 758.804 67.8411 758.809 76.9883C758.813 86.1355 751.401 93.5541 742.254 93.5586L697.351 93.5801L806.083 215.556C811.568 221.708 811.027 231.142 804.874 236.627C798.721 242.112 789.287 241.57 783.803 235.417L674.215 112.481L674.124 159.121C674.106 168.268 666.676 175.668 657.529 175.65C648.383 175.632 640.982 168.203 641 159.057L641.193 60.4307L666.925 60.4814Z" fill="url(#paint3_linear_724_1095)"/>
</g>
<path d="M865.262 46.771C864.665 23.3064 883.203 3.80088 906.668 3.2041C930.132 2.60732 949.638 21.1453 950.235 44.6098L954.505 212.518C955.102 235.982 936.564 255.488 913.099 256.084C889.635 256.681 870.129 238.143 869.533 214.679L865.262 46.771Z" fill="white"/>
<defs>
<linearGradient id="paint0_linear_724_1095" x1="23.8576" y1="226.643" x2="97.1606" y2="226.643" gradientUnits="userSpaceOnUse">
<stop offset="0.206394" stop-color="#F472B6"/>
<stop offset="0.990018" stop-color="#A855F7"/>
</linearGradient>
<linearGradient id="paint1_linear_724_1095" x1="389.748" y1="224.172" x2="338.292" y2="193.965" gradientUnits="userSpaceOnUse">
<stop offset="0.206394" stop-color="#F472B6"/>
<stop offset="0.990018" stop-color="#A855F7"/>
</linearGradient>
<linearGradient id="paint2_linear_724_1095" x1="1060.75" y1="226.172" x2="1009.29" y2="195.965" gradientUnits="userSpaceOnUse">
<stop offset="0.206394" stop-color="#F472B6"/>
<stop offset="0.990018" stop-color="#A855F7"/>
</linearGradient>
<linearGradient id="paint3_linear_724_1095" x1="825.066" y1="203.461" x2="641" y2="191.931" gradientUnits="userSpaceOnUse">
<stop offset="0.206394" stop-color="#F472B6"/>
<stop offset="0.990018" stop-color="#A855F7"/>
</linearGradient>
<clipPath id="clip0_724_1095">
<rect width="265" height="260" fill="white" transform="translate(574 3)"/>
</clipPath>
</defs>
</svg>
